<?xml version="1.0" encoding="UTF-8"?>
<svg id="Layer_1" xmlns="http://www.w3.org/2000/svg" version="1.1" viewBox="0 0 24 24">
  <!-- Generator: Adobe Illustrator 30.5.1, SVG Export Plug-In . SVG Version: 2.1.4 Build 3)  -->
  <defs>
    <style>
      .st0 {
        fill: none;
        stroke: #000;
        stroke-miterlimit: 10;
        stroke-width: .75px;
      }
    </style>
  </defs>
  <path class="st0" d="M5.67,9.76c.26,1.09,6.15,11.93,6.37,11.93.19,0,6.12-10.31,6.37-11.93.62-4.06-2.85-7.44-6.37-7.44s-7.33,3.44-6.37,7.44Z"/>
  <path d="M13.92,7.67c-.01-1.04-.73-1.63-2-1.63-1.08,0-1.79.54-1.79,1.35,0,.62.35.92,1.32,1.19l2.01.54c1.09.3,1.71,1.02,1.71,2.01,0,.69-.34,1.41-.88,1.84-.52.4-1.3.62-2.25.62-1.22,0-2.15-.4-2.7-1.14-.32-.44-.46-.92-.47-1.66h.97c-.01.5.12.88.42,1.23.39.46.98.67,1.85.67.65,0,1.16-.12,1.47-.34.34-.24.57-.68.57-1.11,0-.63-.46-1.03-1.47-1.3l-1.99-.53c-1.06-.27-1.57-.89-1.57-1.87,0-1.45,1.09-2.35,2.85-2.35,1.85,0,2.93.91,2.94,2.49h-.99Z"/>
</svg>